<mxfile host="app.diagrams.net" modified="2023-07-04T09:20:42.402Z" agent="Mozilla/5.0 (Macintosh; Intel Mac OS X 10_15_7) AppleWebKit/537.36 (KHTML, like Gecko) Chrome/113.0.0.0 Safari/537.36" etag="TouMY5B85hFQEGBYvwT5" version="21.5.0" type="github">
  <diagram name="Page-1" id="c2homMQbQnls9qfjQp3g">
    <mxGraphModel dx="2193" dy="1927" grid="1" gridSize="10" guides="1" tooltips="1" connect="1" arrows="1" fold="1" page="1" pageScale="1" pageWidth="827" pageHeight="1169" math="0" shadow="0">
      <root>
        <mxCell id="0" />
        <mxCell id="1" parent="0" />
        <mxCell id="mgeIUsZjKfc3Y_ak5dJY-27" value="" style="edgeStyle=orthogonalEdgeStyle;rounded=0;orthogonalLoop=1;jettySize=auto;html=1;fillColor=#f9f7ed;strokeColor=#36393d;" edge="1" parent="1" source="mgeIUsZjKfc3Y_ak5dJY-18" target="mgeIUsZjKfc3Y_ak5dJY-19">
          <mxGeometry relative="1" as="geometry" />
        </mxCell>
        <mxCell id="mgeIUsZjKfc3Y_ak5dJY-18" value="&lt;font style=&quot;font-size: 24px;&quot;&gt;輸&lt;br&gt;入&lt;br&gt;序&lt;br&gt;列&lt;/font&gt;" style="rounded=0;whiteSpace=wrap;html=1;fillColor=#f9f7ed;strokeColor=#36393d;" vertex="1" parent="1">
          <mxGeometry x="200" y="360" width="60" height="330" as="geometry" />
        </mxCell>
        <mxCell id="mgeIUsZjKfc3Y_ak5dJY-28" value="" style="edgeStyle=orthogonalEdgeStyle;rounded=0;orthogonalLoop=1;jettySize=auto;html=1;fillColor=#f9f7ed;strokeColor=#36393d;" edge="1" parent="1" source="mgeIUsZjKfc3Y_ak5dJY-19" target="mgeIUsZjKfc3Y_ak5dJY-20">
          <mxGeometry relative="1" as="geometry" />
        </mxCell>
        <mxCell id="mgeIUsZjKfc3Y_ak5dJY-19" value="&lt;span style=&quot;font-size: 24px;&quot;&gt;詞&lt;br&gt;嵌&lt;br&gt;入&lt;br&gt;層&lt;/span&gt;" style="rounded=0;whiteSpace=wrap;html=1;fillColor=#f9f7ed;strokeColor=#36393d;" vertex="1" parent="1">
          <mxGeometry x="310" y="360" width="60" height="330" as="geometry" />
        </mxCell>
        <mxCell id="mgeIUsZjKfc3Y_ak5dJY-29" value="" style="edgeStyle=orthogonalEdgeStyle;rounded=0;orthogonalLoop=1;jettySize=auto;html=1;fillColor=#f9f7ed;strokeColor=#36393d;" edge="1" parent="1" source="mgeIUsZjKfc3Y_ak5dJY-20" target="mgeIUsZjKfc3Y_ak5dJY-23">
          <mxGeometry relative="1" as="geometry" />
        </mxCell>
        <mxCell id="mgeIUsZjKfc3Y_ak5dJY-20" value="&lt;font style=&quot;font-size: 24px;&quot;&gt;雙&lt;br&gt;向&lt;br&gt;&lt;span style=&quot;text-align: start;&quot;&gt;&lt;font style=&quot;font-size: 24px;&quot;&gt;長&lt;br&gt;短&lt;br&gt;記&lt;br&gt;憶&lt;br&gt;網&lt;br&gt;路&lt;br&gt;&lt;/font&gt;&lt;/span&gt;&lt;/font&gt;&lt;span style=&quot;font-size: 24px;&quot;&gt;編&lt;br&gt;碼&lt;br&gt;層&lt;br&gt;&lt;/span&gt;" style="rounded=0;whiteSpace=wrap;html=1;fillColor=#f9f7ed;strokeColor=#36393d;" vertex="1" parent="1">
          <mxGeometry x="420" y="360" width="56.5" height="330" as="geometry" />
        </mxCell>
        <mxCell id="mgeIUsZjKfc3Y_ak5dJY-30" value="" style="edgeStyle=orthogonalEdgeStyle;rounded=0;orthogonalLoop=1;jettySize=auto;html=1;" edge="1" parent="1" source="mgeIUsZjKfc3Y_ak5dJY-23" target="mgeIUsZjKfc3Y_ak5dJY-24">
          <mxGeometry relative="1" as="geometry" />
        </mxCell>
        <mxCell id="mgeIUsZjKfc3Y_ak5dJY-23" value="&lt;span style=&quot;font-size: 24px;&quot;&gt;正&lt;br&gt;規&lt;br&gt;化&lt;br&gt;層&lt;br&gt;&lt;/span&gt;" style="rounded=0;whiteSpace=wrap;html=1;fillColor=#f9f7ed;strokeColor=#36393d;" vertex="1" parent="1">
          <mxGeometry x="520" y="360" width="56.5" height="330" as="geometry" />
        </mxCell>
        <mxCell id="mgeIUsZjKfc3Y_ak5dJY-31" value="" style="edgeStyle=orthogonalEdgeStyle;rounded=0;orthogonalLoop=1;jettySize=auto;html=1;" edge="1" parent="1" source="mgeIUsZjKfc3Y_ak5dJY-24" target="mgeIUsZjKfc3Y_ak5dJY-25">
          <mxGeometry relative="1" as="geometry" />
        </mxCell>
        <mxCell id="mgeIUsZjKfc3Y_ak5dJY-24" value="&lt;span style=&quot;font-size: 24px;&quot;&gt;通&lt;br&gt;道&lt;br&gt;&lt;/span&gt;" style="rounded=0;whiteSpace=wrap;html=1;" vertex="1" parent="1">
          <mxGeometry x="630" y="360" width="56.5" height="330" as="geometry" />
        </mxCell>
        <mxCell id="mgeIUsZjKfc3Y_ak5dJY-32" value="" style="edgeStyle=orthogonalEdgeStyle;rounded=0;orthogonalLoop=1;jettySize=auto;html=1;fillColor=#eeeeee;strokeColor=#36393d;" edge="1" parent="1" source="mgeIUsZjKfc3Y_ak5dJY-25" target="mgeIUsZjKfc3Y_ak5dJY-26">
          <mxGeometry relative="1" as="geometry" />
        </mxCell>
        <mxCell id="mgeIUsZjKfc3Y_ak5dJY-25" value="&lt;font style=&quot;border-color: var(--border-color); font-size: 24px;&quot;&gt;單&lt;br style=&quot;border-color: var(--border-color);&quot;&gt;向&lt;br style=&quot;border-color: var(--border-color);&quot;&gt;&lt;font style=&quot;border-color: var(--border-color);&quot;&gt;長&lt;br style=&quot;border-color: var(--border-color);&quot;&gt;短&lt;br style=&quot;border-color: var(--border-color);&quot;&gt;記&lt;br style=&quot;border-color: var(--border-color);&quot;&gt;憶&lt;br style=&quot;border-color: var(--border-color);&quot;&gt;網&lt;br style=&quot;border-color: var(--border-color);&quot;&gt;路&lt;br style=&quot;border-color: var(--border-color);&quot;&gt;&lt;/font&gt;&lt;/font&gt;&lt;span style=&quot;border-color: var(--border-color); font-size: 24px;&quot;&gt;解&lt;br style=&quot;border-color: var(--border-color);&quot;&gt;碼&lt;br style=&quot;border-color: var(--border-color);&quot;&gt;層&lt;/span&gt;&lt;span style=&quot;font-size: 24px;&quot;&gt;&lt;br&gt;&lt;/span&gt;" style="rounded=0;whiteSpace=wrap;html=1;fillColor=#eeeeee;strokeColor=#36393d;" vertex="1" parent="1">
          <mxGeometry x="740" y="360" width="56.5" height="330" as="geometry" />
        </mxCell>
        <mxCell id="mgeIUsZjKfc3Y_ak5dJY-26" value="&lt;span style=&quot;font-size: 24px;&quot;&gt;輸&lt;br&gt;出&lt;br&gt;序&lt;br&gt;列&lt;br&gt;&lt;/span&gt;" style="rounded=0;whiteSpace=wrap;html=1;fillColor=#eeeeee;strokeColor=#36393d;" vertex="1" parent="1">
          <mxGeometry x="840" y="360" width="56.5" height="330" as="geometry" />
        </mxCell>
        <mxCell id="mgeIUsZjKfc3Y_ak5dJY-35" value="" style="edgeStyle=orthogonalEdgeStyle;rounded=0;orthogonalLoop=1;jettySize=auto;html=1;fillColor=#f9f7ed;strokeColor=#36393d;" edge="1" parent="1" source="mgeIUsZjKfc3Y_ak5dJY-33" target="mgeIUsZjKfc3Y_ak5dJY-34">
          <mxGeometry relative="1" as="geometry" />
        </mxCell>
        <mxCell id="mgeIUsZjKfc3Y_ak5dJY-33" value="&lt;font style=&quot;font-size: 24px;&quot;&gt;Input data&lt;/font&gt;" style="rounded=0;whiteSpace=wrap;html=1;fillColor=#f9f7ed;strokeColor=#36393d;" vertex="1" parent="1">
          <mxGeometry x="-320" y="780" width="260" height="60" as="geometry" />
        </mxCell>
        <mxCell id="mgeIUsZjKfc3Y_ak5dJY-37" value="" style="edgeStyle=orthogonalEdgeStyle;rounded=0;orthogonalLoop=1;jettySize=auto;html=1;fillColor=#f9f7ed;strokeColor=#36393d;" edge="1" parent="1" source="mgeIUsZjKfc3Y_ak5dJY-34" target="mgeIUsZjKfc3Y_ak5dJY-36">
          <mxGeometry relative="1" as="geometry" />
        </mxCell>
        <mxCell id="mgeIUsZjKfc3Y_ak5dJY-34" value="&lt;font style=&quot;font-size: 24px;&quot;&gt;Word Embedding&lt;/font&gt;" style="rounded=0;whiteSpace=wrap;html=1;fillColor=#f9f7ed;strokeColor=#36393d;" vertex="1" parent="1">
          <mxGeometry x="-320" y="880" width="260" height="60" as="geometry" />
        </mxCell>
        <mxCell id="mgeIUsZjKfc3Y_ak5dJY-39" value="" style="edgeStyle=orthogonalEdgeStyle;rounded=0;orthogonalLoop=1;jettySize=auto;html=1;fillColor=#f9f7ed;strokeColor=#36393d;" edge="1" parent="1" source="mgeIUsZjKfc3Y_ak5dJY-36" target="mgeIUsZjKfc3Y_ak5dJY-38">
          <mxGeometry relative="1" as="geometry" />
        </mxCell>
        <mxCell id="mgeIUsZjKfc3Y_ak5dJY-36" value="&lt;font style=&quot;font-size: 24px;&quot;&gt;BiLSTM Encoder&lt;/font&gt;" style="rounded=0;whiteSpace=wrap;html=1;fillColor=#f9f7ed;strokeColor=#36393d;" vertex="1" parent="1">
          <mxGeometry x="-320" y="980" width="260" height="60" as="geometry" />
        </mxCell>
        <mxCell id="mgeIUsZjKfc3Y_ak5dJY-38" value="&lt;font style=&quot;font-size: 24px;&quot;&gt;Norm&lt;/font&gt;" style="rounded=0;whiteSpace=wrap;html=1;fillColor=#f9f7ed;strokeColor=#36393d;" vertex="1" parent="1">
          <mxGeometry x="-320" y="1080" width="260" height="60" as="geometry" />
        </mxCell>
        <mxCell id="mgeIUsZjKfc3Y_ak5dJY-40" value="&lt;font style=&quot;font-size: 24px;&quot;&gt;Physical Channel&lt;/font&gt;" style="rounded=0;whiteSpace=wrap;html=1;" vertex="1" parent="1">
          <mxGeometry x="-60" y="1180" width="260" height="60" as="geometry" />
        </mxCell>
        <mxCell id="mgeIUsZjKfc3Y_ak5dJY-84" value="" style="edgeStyle=orthogonalEdgeStyle;rounded=0;orthogonalLoop=1;jettySize=auto;html=1;" edge="1" parent="1" source="mgeIUsZjKfc3Y_ak5dJY-43" target="mgeIUsZjKfc3Y_ak5dJY-45">
          <mxGeometry relative="1" as="geometry" />
        </mxCell>
        <mxCell id="mgeIUsZjKfc3Y_ak5dJY-43" value="&lt;font style=&quot;font-size: 24px;&quot;&gt;LSTM Decoder&lt;/font&gt;" style="rounded=0;whiteSpace=wrap;html=1;fillColor=#eeeeee;strokeColor=#36393d;" vertex="1" parent="1">
          <mxGeometry x="200" y="980" width="260" height="60" as="geometry" />
        </mxCell>
        <mxCell id="mgeIUsZjKfc3Y_ak5dJY-45" value="&lt;font style=&quot;font-size: 24px;&quot;&gt;Output data&lt;/font&gt;" style="rounded=0;whiteSpace=wrap;html=1;fillColor=#eeeeee;strokeColor=#36393d;" vertex="1" parent="1">
          <mxGeometry x="200" y="880" width="260" height="60" as="geometry" />
        </mxCell>
        <mxCell id="mgeIUsZjKfc3Y_ak5dJY-47" value="" style="edgeStyle=orthogonalEdgeStyle;rounded=0;orthogonalLoop=1;jettySize=auto;html=1;fillColor=#f9f7ed;strokeColor=#36393d;" edge="1" parent="1" source="mgeIUsZjKfc3Y_ak5dJY-48" target="mgeIUsZjKfc3Y_ak5dJY-50">
          <mxGeometry relative="1" as="geometry" />
        </mxCell>
        <mxCell id="mgeIUsZjKfc3Y_ak5dJY-48" value="&lt;font style=&quot;font-size: 24px;&quot;&gt;輸&lt;br&gt;入&lt;br&gt;序&lt;br&gt;列&lt;/font&gt;" style="rounded=0;whiteSpace=wrap;html=1;fillColor=#f9f7ed;strokeColor=#36393d;" vertex="1" parent="1">
          <mxGeometry x="110" y="-120" width="60" height="330" as="geometry" />
        </mxCell>
        <mxCell id="mgeIUsZjKfc3Y_ak5dJY-49" value="" style="edgeStyle=orthogonalEdgeStyle;rounded=0;orthogonalLoop=1;jettySize=auto;html=1;fillColor=#f9f7ed;strokeColor=#36393d;" edge="1" parent="1" source="mgeIUsZjKfc3Y_ak5dJY-50" target="mgeIUsZjKfc3Y_ak5dJY-52">
          <mxGeometry relative="1" as="geometry" />
        </mxCell>
        <mxCell id="mgeIUsZjKfc3Y_ak5dJY-50" value="&lt;span style=&quot;font-size: 24px;&quot;&gt;詞&lt;br&gt;嵌&lt;br&gt;入&lt;br&gt;層&lt;/span&gt;" style="rounded=0;whiteSpace=wrap;html=1;fillColor=#f9f7ed;strokeColor=#36393d;" vertex="1" parent="1">
          <mxGeometry x="220" y="-120" width="60" height="330" as="geometry" />
        </mxCell>
        <mxCell id="mgeIUsZjKfc3Y_ak5dJY-51" value="" style="edgeStyle=orthogonalEdgeStyle;rounded=0;orthogonalLoop=1;jettySize=auto;html=1;fillColor=#f9f7ed;strokeColor=#36393d;" edge="1" parent="1" source="mgeIUsZjKfc3Y_ak5dJY-52" target="mgeIUsZjKfc3Y_ak5dJY-54">
          <mxGeometry relative="1" as="geometry" />
        </mxCell>
        <mxCell id="mgeIUsZjKfc3Y_ak5dJY-52" value="&lt;font style=&quot;font-size: 24px;&quot;&gt;雙&lt;br&gt;向&lt;br&gt;&lt;span style=&quot;text-align: start;&quot;&gt;&lt;font style=&quot;font-size: 24px;&quot;&gt;長&lt;br&gt;短&lt;br&gt;記&lt;br&gt;憶&lt;br&gt;網&lt;br&gt;路&lt;br&gt;&lt;/font&gt;&lt;/span&gt;&lt;/font&gt;&lt;span style=&quot;font-size: 24px;&quot;&gt;編&lt;br&gt;碼&lt;br&gt;層&lt;br&gt;&lt;/span&gt;" style="rounded=0;whiteSpace=wrap;html=1;fillColor=#f9f7ed;strokeColor=#36393d;" vertex="1" parent="1">
          <mxGeometry x="330" y="-120" width="56.5" height="330" as="geometry" />
        </mxCell>
        <mxCell id="mgeIUsZjKfc3Y_ak5dJY-61" value="" style="edgeStyle=orthogonalEdgeStyle;rounded=0;orthogonalLoop=1;jettySize=auto;html=1;fillColor=#f9f7ed;strokeColor=#36393d;" edge="1" parent="1" source="mgeIUsZjKfc3Y_ak5dJY-54" target="mgeIUsZjKfc3Y_ak5dJY-60">
          <mxGeometry relative="1" as="geometry" />
        </mxCell>
        <mxCell id="mgeIUsZjKfc3Y_ak5dJY-54" value="&lt;span style=&quot;font-size: 24px;&quot;&gt;正&lt;br&gt;規&lt;br&gt;化&lt;br&gt;層&lt;br&gt;&lt;/span&gt;" style="rounded=0;whiteSpace=wrap;html=1;fillColor=#f9f7ed;strokeColor=#36393d;" vertex="1" parent="1">
          <mxGeometry x="430" y="-120" width="56.5" height="330" as="geometry" />
        </mxCell>
        <mxCell id="mgeIUsZjKfc3Y_ak5dJY-63" value="" style="edgeStyle=orthogonalEdgeStyle;rounded=0;orthogonalLoop=1;jettySize=auto;html=1;" edge="1" parent="1" source="mgeIUsZjKfc3Y_ak5dJY-56" target="mgeIUsZjKfc3Y_ak5dJY-62">
          <mxGeometry relative="1" as="geometry" />
        </mxCell>
        <mxCell id="mgeIUsZjKfc3Y_ak5dJY-56" value="&lt;span style=&quot;font-size: 24px;&quot;&gt;通&lt;br&gt;道&lt;br&gt;&lt;/span&gt;" style="rounded=0;whiteSpace=wrap;html=1;" vertex="1" parent="1">
          <mxGeometry x="635" y="-120" width="56.5" height="330" as="geometry" />
        </mxCell>
        <mxCell id="mgeIUsZjKfc3Y_ak5dJY-57" value="" style="edgeStyle=orthogonalEdgeStyle;rounded=0;orthogonalLoop=1;jettySize=auto;html=1;fillColor=#eeeeee;strokeColor=#36393d;" edge="1" parent="1" source="mgeIUsZjKfc3Y_ak5dJY-58" target="mgeIUsZjKfc3Y_ak5dJY-59">
          <mxGeometry relative="1" as="geometry" />
        </mxCell>
        <mxCell id="mgeIUsZjKfc3Y_ak5dJY-58" value="&lt;font style=&quot;border-color: var(--border-color); font-size: 24px;&quot;&gt;單&lt;br style=&quot;border-color: var(--border-color);&quot;&gt;向&lt;br style=&quot;border-color: var(--border-color);&quot;&gt;&lt;font style=&quot;border-color: var(--border-color);&quot;&gt;長&lt;br style=&quot;border-color: var(--border-color);&quot;&gt;短&lt;br style=&quot;border-color: var(--border-color);&quot;&gt;記&lt;br style=&quot;border-color: var(--border-color);&quot;&gt;憶&lt;br style=&quot;border-color: var(--border-color);&quot;&gt;網&lt;br style=&quot;border-color: var(--border-color);&quot;&gt;路&lt;br style=&quot;border-color: var(--border-color);&quot;&gt;&lt;/font&gt;&lt;/font&gt;&lt;span style=&quot;border-color: var(--border-color); font-size: 24px;&quot;&gt;解&lt;br style=&quot;border-color: var(--border-color);&quot;&gt;碼&lt;br style=&quot;border-color: var(--border-color);&quot;&gt;層&lt;/span&gt;&lt;span style=&quot;font-size: 24px;&quot;&gt;&lt;br&gt;&lt;/span&gt;" style="rounded=0;whiteSpace=wrap;html=1;fillColor=#eeeeee;strokeColor=#36393d;" vertex="1" parent="1">
          <mxGeometry x="840" y="-120" width="56.5" height="330" as="geometry" />
        </mxCell>
        <mxCell id="mgeIUsZjKfc3Y_ak5dJY-59" value="&lt;span style=&quot;font-size: 24px;&quot;&gt;輸&lt;br&gt;出&lt;br&gt;序&lt;br&gt;列&lt;br&gt;&lt;/span&gt;" style="rounded=0;whiteSpace=wrap;html=1;fillColor=#eeeeee;strokeColor=#36393d;" vertex="1" parent="1">
          <mxGeometry x="940" y="-120" width="56.5" height="330" as="geometry" />
        </mxCell>
        <mxCell id="mgeIUsZjKfc3Y_ak5dJY-64" value="" style="edgeStyle=orthogonalEdgeStyle;rounded=0;orthogonalLoop=1;jettySize=auto;html=1;" edge="1" parent="1" source="mgeIUsZjKfc3Y_ak5dJY-60" target="mgeIUsZjKfc3Y_ak5dJY-56">
          <mxGeometry relative="1" as="geometry" />
        </mxCell>
        <mxCell id="mgeIUsZjKfc3Y_ak5dJY-60" value="&lt;span style=&quot;font-size: 24px;&quot;&gt;二&lt;br&gt;進&lt;br&gt;制&lt;br&gt;層&lt;br&gt;&lt;/span&gt;" style="rounded=0;whiteSpace=wrap;html=1;fillColor=#f9f7ed;strokeColor=#36393d;" vertex="1" parent="1">
          <mxGeometry x="530" y="-120" width="56.5" height="330" as="geometry" />
        </mxCell>
        <mxCell id="mgeIUsZjKfc3Y_ak5dJY-65" value="" style="edgeStyle=orthogonalEdgeStyle;rounded=0;orthogonalLoop=1;jettySize=auto;html=1;fillColor=#eeeeee;strokeColor=#36393d;" edge="1" parent="1" target="mgeIUsZjKfc3Y_ak5dJY-58">
          <mxGeometry relative="1" as="geometry">
            <mxPoint x="790" y="45" as="sourcePoint" />
          </mxGeometry>
        </mxCell>
        <mxCell id="mgeIUsZjKfc3Y_ak5dJY-62" value="&lt;span style=&quot;font-size: 24px;&quot;&gt;二&lt;br&gt;進&lt;br&gt;制&lt;br&gt;層&lt;br&gt;&lt;/span&gt;" style="rounded=0;whiteSpace=wrap;html=1;fillColor=#eeeeee;strokeColor=#36393d;" vertex="1" parent="1">
          <mxGeometry x="740" y="-120" width="56.5" height="330" as="geometry" />
        </mxCell>
        <mxCell id="mgeIUsZjKfc3Y_ak5dJY-66" value="" style="edgeStyle=orthogonalEdgeStyle;rounded=0;orthogonalLoop=1;jettySize=auto;html=1;fillColor=#f9f7ed;strokeColor=#36393d;" edge="1" parent="1" source="mgeIUsZjKfc3Y_ak5dJY-67" target="mgeIUsZjKfc3Y_ak5dJY-69">
          <mxGeometry relative="1" as="geometry" />
        </mxCell>
        <mxCell id="mgeIUsZjKfc3Y_ak5dJY-67" value="&lt;font style=&quot;font-size: 24px;&quot;&gt;Input data&lt;/font&gt;" style="rounded=0;whiteSpace=wrap;html=1;fillColor=#f9f7ed;strokeColor=#36393d;" vertex="1" parent="1">
          <mxGeometry x="700" y="770" width="260" height="60" as="geometry" />
        </mxCell>
        <mxCell id="mgeIUsZjKfc3Y_ak5dJY-68" value="" style="edgeStyle=orthogonalEdgeStyle;rounded=0;orthogonalLoop=1;jettySize=auto;html=1;fillColor=#f9f7ed;strokeColor=#36393d;" edge="1" parent="1" source="mgeIUsZjKfc3Y_ak5dJY-69" target="mgeIUsZjKfc3Y_ak5dJY-71">
          <mxGeometry relative="1" as="geometry" />
        </mxCell>
        <mxCell id="mgeIUsZjKfc3Y_ak5dJY-69" value="&lt;font style=&quot;font-size: 24px;&quot;&gt;Word Embedding&lt;/font&gt;" style="rounded=0;whiteSpace=wrap;html=1;fillColor=#f9f7ed;strokeColor=#36393d;" vertex="1" parent="1">
          <mxGeometry x="700" y="870" width="260" height="60" as="geometry" />
        </mxCell>
        <mxCell id="mgeIUsZjKfc3Y_ak5dJY-70" value="" style="edgeStyle=orthogonalEdgeStyle;rounded=0;orthogonalLoop=1;jettySize=auto;html=1;fillColor=#f9f7ed;strokeColor=#36393d;" edge="1" parent="1" source="mgeIUsZjKfc3Y_ak5dJY-71" target="mgeIUsZjKfc3Y_ak5dJY-73">
          <mxGeometry relative="1" as="geometry" />
        </mxCell>
        <mxCell id="mgeIUsZjKfc3Y_ak5dJY-71" value="&lt;font style=&quot;font-size: 24px;&quot;&gt;BiLSTM Encoder&lt;/font&gt;" style="rounded=0;whiteSpace=wrap;html=1;fillColor=#f9f7ed;strokeColor=#36393d;" vertex="1" parent="1">
          <mxGeometry x="700" y="970" width="260" height="60" as="geometry" />
        </mxCell>
        <mxCell id="mgeIUsZjKfc3Y_ak5dJY-72" value="" style="edgeStyle=orthogonalEdgeStyle;rounded=0;orthogonalLoop=1;jettySize=auto;html=1;" edge="1" parent="1" source="mgeIUsZjKfc3Y_ak5dJY-73" target="mgeIUsZjKfc3Y_ak5dJY-75">
          <mxGeometry relative="1" as="geometry" />
        </mxCell>
        <mxCell id="mgeIUsZjKfc3Y_ak5dJY-73" value="&lt;font style=&quot;font-size: 24px;&quot;&gt;Norm&lt;/font&gt;" style="rounded=0;whiteSpace=wrap;html=1;fillColor=#f9f7ed;strokeColor=#36393d;" vertex="1" parent="1">
          <mxGeometry x="700" y="1070" width="260" height="60" as="geometry" />
        </mxCell>
        <mxCell id="mgeIUsZjKfc3Y_ak5dJY-74" value="" style="edgeStyle=orthogonalEdgeStyle;rounded=0;orthogonalLoop=1;jettySize=auto;html=1;" edge="1" parent="1" source="mgeIUsZjKfc3Y_ak5dJY-75" target="mgeIUsZjKfc3Y_ak5dJY-77">
          <mxGeometry relative="1" as="geometry" />
        </mxCell>
        <mxCell id="mgeIUsZjKfc3Y_ak5dJY-75" value="&lt;font style=&quot;font-size: 24px;&quot;&gt;Physical Channel&lt;/font&gt;" style="rounded=0;whiteSpace=wrap;html=1;" vertex="1" parent="1">
          <mxGeometry x="700" y="1169" width="260" height="60" as="geometry" />
        </mxCell>
        <mxCell id="mgeIUsZjKfc3Y_ak5dJY-76" value="" style="edgeStyle=orthogonalEdgeStyle;rounded=0;orthogonalLoop=1;jettySize=auto;html=1;fillColor=#eeeeee;strokeColor=#36393d;" edge="1" parent="1" source="mgeIUsZjKfc3Y_ak5dJY-77" target="mgeIUsZjKfc3Y_ak5dJY-78">
          <mxGeometry relative="1" as="geometry" />
        </mxCell>
        <mxCell id="mgeIUsZjKfc3Y_ak5dJY-77" value="&lt;font style=&quot;font-size: 24px;&quot;&gt;LSTM Decoder&lt;/font&gt;" style="rounded=0;whiteSpace=wrap;html=1;fillColor=#eeeeee;strokeColor=#36393d;" vertex="1" parent="1">
          <mxGeometry x="700" y="1270" width="260" height="60" as="geometry" />
        </mxCell>
        <mxCell id="mgeIUsZjKfc3Y_ak5dJY-78" value="&lt;font style=&quot;font-size: 24px;&quot;&gt;Output data&lt;/font&gt;" style="rounded=0;whiteSpace=wrap;html=1;fillColor=#eeeeee;strokeColor=#36393d;" vertex="1" parent="1">
          <mxGeometry x="700" y="1370" width="260" height="60" as="geometry" />
        </mxCell>
        <mxCell id="mgeIUsZjKfc3Y_ak5dJY-80" value="" style="endArrow=none;html=1;rounded=0;entryX=0.5;entryY=1;entryDx=0;entryDy=0;" edge="1" parent="1" target="mgeIUsZjKfc3Y_ak5dJY-38">
          <mxGeometry width="50" height="50" relative="1" as="geometry">
            <mxPoint x="-190" y="1210" as="sourcePoint" />
            <mxPoint x="-140" y="1130" as="targetPoint" />
          </mxGeometry>
        </mxCell>
        <mxCell id="mgeIUsZjKfc3Y_ak5dJY-81" value="" style="endArrow=classic;html=1;rounded=0;entryX=0;entryY=0.5;entryDx=0;entryDy=0;" edge="1" parent="1" target="mgeIUsZjKfc3Y_ak5dJY-40">
          <mxGeometry width="50" height="50" relative="1" as="geometry">
            <mxPoint x="-190" y="1210" as="sourcePoint" />
            <mxPoint x="-10" y="1290" as="targetPoint" />
          </mxGeometry>
        </mxCell>
        <mxCell id="mgeIUsZjKfc3Y_ak5dJY-82" value="" style="endArrow=none;html=1;rounded=0;exitX=1;exitY=0.5;exitDx=0;exitDy=0;" edge="1" parent="1" source="mgeIUsZjKfc3Y_ak5dJY-40">
          <mxGeometry width="50" height="50" relative="1" as="geometry">
            <mxPoint x="230" y="1250" as="sourcePoint" />
            <mxPoint x="330" y="1210" as="targetPoint" />
          </mxGeometry>
        </mxCell>
        <mxCell id="mgeIUsZjKfc3Y_ak5dJY-83" value="" style="endArrow=classic;html=1;rounded=0;entryX=0.5;entryY=1;entryDx=0;entryDy=0;" edge="1" parent="1" target="mgeIUsZjKfc3Y_ak5dJY-43">
          <mxGeometry width="50" height="50" relative="1" as="geometry">
            <mxPoint x="330" y="1210" as="sourcePoint" />
            <mxPoint x="400" y="1160" as="targetPoint" />
          </mxGeometry>
        </mxCell>
        <mxCell id="mgeIUsZjKfc3Y_ak5dJY-85" value="" style="edgeStyle=orthogonalEdgeStyle;rounded=0;orthogonalLoop=1;jettySize=auto;html=1;fillColor=#f9f7ed;strokeColor=#36393d;" edge="1" parent="1" source="mgeIUsZjKfc3Y_ak5dJY-86" target="mgeIUsZjKfc3Y_ak5dJY-88">
          <mxGeometry relative="1" as="geometry" />
        </mxCell>
        <mxCell id="mgeIUsZjKfc3Y_ak5dJY-86" value="&lt;font style=&quot;font-size: 24px;&quot;&gt;Input data&lt;/font&gt;" style="rounded=0;whiteSpace=wrap;html=1;fillColor=#f9f7ed;strokeColor=#36393d;" vertex="1" parent="1">
          <mxGeometry x="-310" y="1400" width="260" height="60" as="geometry" />
        </mxCell>
        <mxCell id="mgeIUsZjKfc3Y_ak5dJY-87" value="" style="edgeStyle=orthogonalEdgeStyle;rounded=0;orthogonalLoop=1;jettySize=auto;html=1;fillColor=#f9f7ed;strokeColor=#36393d;" edge="1" parent="1" source="mgeIUsZjKfc3Y_ak5dJY-88" target="mgeIUsZjKfc3Y_ak5dJY-90">
          <mxGeometry relative="1" as="geometry" />
        </mxCell>
        <mxCell id="mgeIUsZjKfc3Y_ak5dJY-88" value="&lt;font style=&quot;font-size: 24px;&quot;&gt;Word Embedding&lt;/font&gt;" style="rounded=0;whiteSpace=wrap;html=1;fillColor=#f9f7ed;strokeColor=#36393d;" vertex="1" parent="1">
          <mxGeometry x="-310" y="1500" width="260" height="60" as="geometry" />
        </mxCell>
        <mxCell id="mgeIUsZjKfc3Y_ak5dJY-89" value="" style="edgeStyle=orthogonalEdgeStyle;rounded=0;orthogonalLoop=1;jettySize=auto;html=1;fillColor=#f9f7ed;strokeColor=#36393d;" edge="1" parent="1" source="mgeIUsZjKfc3Y_ak5dJY-90" target="mgeIUsZjKfc3Y_ak5dJY-91">
          <mxGeometry relative="1" as="geometry" />
        </mxCell>
        <mxCell id="mgeIUsZjKfc3Y_ak5dJY-90" value="&lt;font style=&quot;font-size: 24px;&quot;&gt;BiLSTM Encoder&lt;/font&gt;" style="rounded=0;whiteSpace=wrap;html=1;fillColor=#f9f7ed;strokeColor=#36393d;" vertex="1" parent="1">
          <mxGeometry x="-310" y="1600" width="260" height="60" as="geometry" />
        </mxCell>
        <mxCell id="mgeIUsZjKfc3Y_ak5dJY-101" value="" style="edgeStyle=orthogonalEdgeStyle;rounded=0;orthogonalLoop=1;jettySize=auto;html=1;" edge="1" parent="1" source="mgeIUsZjKfc3Y_ak5dJY-91" target="mgeIUsZjKfc3Y_ak5dJY-100">
          <mxGeometry relative="1" as="geometry" />
        </mxCell>
        <mxCell id="mgeIUsZjKfc3Y_ak5dJY-91" value="&lt;font style=&quot;font-size: 24px;&quot;&gt;Norm&lt;/font&gt;" style="rounded=0;whiteSpace=wrap;html=1;fillColor=#f9f7ed;strokeColor=#36393d;" vertex="1" parent="1">
          <mxGeometry x="-310" y="1700" width="260" height="60" as="geometry" />
        </mxCell>
        <mxCell id="mgeIUsZjKfc3Y_ak5dJY-92" value="&lt;font style=&quot;font-size: 24px;&quot;&gt;Physical Channel&lt;/font&gt;" style="rounded=0;whiteSpace=wrap;html=1;" vertex="1" parent="1">
          <mxGeometry x="-50" y="1910" width="260" height="60" as="geometry" />
        </mxCell>
        <mxCell id="mgeIUsZjKfc3Y_ak5dJY-93" value="" style="edgeStyle=orthogonalEdgeStyle;rounded=0;orthogonalLoop=1;jettySize=auto;html=1;" edge="1" parent="1" source="mgeIUsZjKfc3Y_ak5dJY-94" target="mgeIUsZjKfc3Y_ak5dJY-95">
          <mxGeometry relative="1" as="geometry" />
        </mxCell>
        <mxCell id="mgeIUsZjKfc3Y_ak5dJY-94" value="&lt;font style=&quot;font-size: 24px;&quot;&gt;LSTM Decoder&lt;/font&gt;" style="rounded=0;whiteSpace=wrap;html=1;fillColor=#eeeeee;strokeColor=#36393d;" vertex="1" parent="1">
          <mxGeometry x="210" y="1600" width="260" height="60" as="geometry" />
        </mxCell>
        <mxCell id="mgeIUsZjKfc3Y_ak5dJY-95" value="&lt;font style=&quot;font-size: 24px;&quot;&gt;Output data&lt;/font&gt;" style="rounded=0;whiteSpace=wrap;html=1;fillColor=#eeeeee;strokeColor=#36393d;" vertex="1" parent="1">
          <mxGeometry x="210" y="1500" width="260" height="60" as="geometry" />
        </mxCell>
        <mxCell id="mgeIUsZjKfc3Y_ak5dJY-97" value="" style="endArrow=classic;html=1;rounded=0;entryX=0;entryY=0.5;entryDx=0;entryDy=0;" edge="1" parent="1" target="mgeIUsZjKfc3Y_ak5dJY-92">
          <mxGeometry width="50" height="50" relative="1" as="geometry">
            <mxPoint x="-180" y="1940" as="sourcePoint" />
            <mxPoint y="2020" as="targetPoint" />
          </mxGeometry>
        </mxCell>
        <mxCell id="mgeIUsZjKfc3Y_ak5dJY-98" value="" style="endArrow=none;html=1;rounded=0;exitX=1;exitY=0.5;exitDx=0;exitDy=0;" edge="1" parent="1" source="mgeIUsZjKfc3Y_ak5dJY-92">
          <mxGeometry width="50" height="50" relative="1" as="geometry">
            <mxPoint x="240" y="1980" as="sourcePoint" />
            <mxPoint x="340" y="1940" as="targetPoint" />
          </mxGeometry>
        </mxCell>
        <mxCell id="mgeIUsZjKfc3Y_ak5dJY-100" value="&lt;font style=&quot;font-size: 24px;&quot;&gt;Binarizer&lt;/font&gt;" style="rounded=0;whiteSpace=wrap;html=1;fillColor=#f9f7ed;strokeColor=#36393d;" vertex="1" parent="1">
          <mxGeometry x="-310" y="1800" width="260" height="60" as="geometry" />
        </mxCell>
        <mxCell id="mgeIUsZjKfc3Y_ak5dJY-102" value="" style="endArrow=none;html=1;rounded=0;entryX=0.5;entryY=1;entryDx=0;entryDy=0;" edge="1" parent="1" target="mgeIUsZjKfc3Y_ak5dJY-100">
          <mxGeometry width="50" height="50" relative="1" as="geometry">
            <mxPoint x="-180" y="1940" as="sourcePoint" />
            <mxPoint x="-430" y="1870" as="targetPoint" />
          </mxGeometry>
        </mxCell>
        <mxCell id="mgeIUsZjKfc3Y_ak5dJY-105" value="" style="edgeStyle=orthogonalEdgeStyle;rounded=0;orthogonalLoop=1;jettySize=auto;html=1;" edge="1" parent="1" source="mgeIUsZjKfc3Y_ak5dJY-103" target="mgeIUsZjKfc3Y_ak5dJY-94">
          <mxGeometry relative="1" as="geometry" />
        </mxCell>
        <mxCell id="mgeIUsZjKfc3Y_ak5dJY-103" value="&lt;font style=&quot;font-size: 24px;&quot;&gt;Binarizer&lt;/font&gt;" style="rounded=0;whiteSpace=wrap;html=1;fillColor=#eeeeee;strokeColor=#36393d;" vertex="1" parent="1">
          <mxGeometry x="210" y="1700" width="260" height="60" as="geometry" />
        </mxCell>
        <mxCell id="mgeIUsZjKfc3Y_ak5dJY-107" value="" style="endArrow=classic;html=1;rounded=0;entryX=0.5;entryY=1;entryDx=0;entryDy=0;" edge="1" parent="1" target="mgeIUsZjKfc3Y_ak5dJY-103">
          <mxGeometry width="50" height="50" relative="1" as="geometry">
            <mxPoint x="340" y="1940" as="sourcePoint" />
            <mxPoint x="470" y="1880" as="targetPoint" />
          </mxGeometry>
        </mxCell>
        <mxCell id="mgeIUsZjKfc3Y_ak5dJY-108" value="" style="shape=image;verticalLabelPosition=bottom;labelBackgroundColor=default;verticalAlign=top;aspect=fixed;imageAspect=0;image=data:image/png,iVBORw0KGgoAAAANSUhEUgAAASQAAACICAYAAABOUJbNAAAAAXNSR0IArs4c6QAAAIRlWElmTU0AKgAAAAgABQESAAMAAAABAAEAAAEaAAUAAAABAAAASgEbAAUAAAABAAAAUgEoAAMAAAABAAIAAIdpAAQAAAABAAAAWgAAAAAAAACQAAAAAQAAAJAAAAABAAOgAQADAAAAAQABAACgAgAEAAAAAQAAASSgAwAEAAAAAQAAAIgAAAAAYrPGHwAAAAlwSFlzAAAWJQAAFiUBSVIk8AAAGIBJREFUeAHtnQWM5EYThfsuF2ZmZma4DTMqoDDnwsxMCiigcKIwKgyXRGFWOHdhZmZm5vvv858etXvtsT3umfGeX0m75nL3c/t1dVW1p58pIQMHDhxW4nJdKgSEwAiIwNChQ/u1Wq3+rV6o64SAEBACoREYEELhkCFDQqiRDiEgBPowAj09PaVLLwupNIRSIASEQCgEREihkJQeISAESiMgQioNoRQIASEQCgERUigkpUcICIHSCIiQSkMoBUJACIRCQIQUCknpEQJCoDQCIqTSEEqBEBACoRAQIYVCUnqEgBAojYAIqTSEUiAEhEAoBERIoZCUHiEgBEojIEIqDaEUCAEhEAoBEVIoJKVHCAiB0giIkEpDKAVCQAiEQkCEFApJ6RECQqA0AiKk0hBKgRAQAqEQECGFQlJ6hIAQKI2ACKk0hFIgBIRAKARESKGQlB4hIARKIyBCKg2hFAgBIRAKARFSKCSlRwgIgdIIiJBKQygFQkAIhEJAhBQKSekRAkKgNAIipNIQSoEQEAKhEBAhhUJSeoSAECiNgAipNIRSIASEQCgEREihkJQeISAESiMgQioNoRQIASEQCgERUigkpUcICIHSCIiQSkMoBUJACIRCQIQUCknpEQJCoDQCIqTSEEqBEBACoRAQIYVCUnqEgBAojYAIqTSEUiAEhEAoBERIoZCUHiEgBEojIEIqDaEUCAEhEAoBEVIoJKVHCAiB0giIkEpDKAVCQAiEQkCEFApJ6RECQqA0AiKk0hBKgRAQAqEQECGFQlJ6hIAQKI2ACKk0hFIgBIRAKARESKGQlB4hIARKIyBCKg2hFAgBIRAKARFSKCSlRwgIgdIIiJBKQygFQkAIhEJAhBQKSekRAkKgNAIipNIQSoEQEAKhEBAhhUJSeoSAECiNgAipNIRSIASEQCgEBoRSlKXnn3/+Md9//33WaY3jI488shljjDHMgAHFivjHH3+Yn3/+uaFn3HHHLayjcXEfXxEWYR7gL7/8Ys477zzz77//mpFGGsnstttuI0ybuuGGG8x7770XAbXaaquZOeaYIwxoLWop9ra3eBMue/zxx81+++1XWMMUU0xh5p13XjPffPOZJZZYwow//vhNdZx99tlm8ODBjXMOOOAAs9ZaazW267QiLMI87XPOOcfceOONkTLaYdFOMkwp2qPl999/b9Tt6aefNpdeeqkZddRR23OzHFo7RkjDhg3LUZzep3z66aeGvzvvvNOMPfbYZpdddjFrrrlm7xP/20Mv5kqr93V19NV1YVH+yT3//PONFxZtu+++ey6ln332Wa7zILcxxxzTjD766KZfv365rgl50vrrrx/Vj/J++OGH5uKLLzY77bRTyFsU0tUxQipUqpSTf/rpJ3P88cebH374wWy++eYpZ2m3EAiDAEPe4447rqFslVVWMbPNNltjO23l448/NhtssEHa4cT9DAVnmmkmM9dcc0UWPeudkFFGGSXq5A899NDodldddZVZbrnlzKyzztqJ2/e6R1ed2gsssIDx/xie8dCnm246M9poo/UqMDswoZ966qnEY9opBEIhcNFFF5mPPvooUodPM6/lMM4445hBgwZluhfccuJjfeONNww+nS222MKcfPLJplPWPQRkfUeU49hjjzV///23W7yOrXfNQsJEPfPMM5tWlAfy1ltvmaOPPtq88847sXMvueQSs/DCC8f2sbHqqquaGWaYobF/oYUWaqzXbUVYtP7EP/jgA3P11Vc3FOCHnHjiiRvbzVYgpO22287079/fQGpWsEauueYawxKL6NdffzXffvttRETXXXddNGSy50JM+Eu33npru6uty2233dbsvffe0T1457j/hhtu2NZ7JinvGiElFcbfx5h6lllmMRdeeKE5/PDDzSOPPNI4hbE9viWc3q7A9Jbt3f11XBcWrT91yAhrAYE8WnERTDbZZLECMAxy9xEBnnzyyc2cc84ZDdMgBNfyv/baa81mm20WEVhMURs2FltsMTP77LOb1157LdIOca677rodd+B3dciWF1e8/htttFGv099///1e+7RDCJRFAKvlrrvuaqhZZJFFcltHjYuGr3zyySfuZkQ8sR3OBqR32GGHOXuMwWdKp9spIexv5YsvvjD333+/3ezYstIWkovC3HPPHfUUf/75Z2P3N99801i3KzQmwLQyzTTTRFEMu82S67788stoF1GOmWeeuXH4xRdfjHqpr776KspnmnbaaSMHH73bpJNO2jivyAq6GALwRyTj66+/jkKrmPbopYeknM0EHVyHYPLPOOOM0frrr79uHn74YYMjdaqppopSJBZddNHoWBYWYJCEYXRxzn/jjTde1Ms3O52hCUNuhgL8EWpmWA3uWMATTDBBs8ujY63UP1NpygkMV9x2ho+lFaGuruCwbiYTTTSRoU38+OOPjdO+++67yJ/a2NHGlWWWWcaccsopDd8VDu6VVlqpjXfsrbrPEBKN2JrQthpJY3p8SzQoK/vvv79Ze+217Wa0ZAh48803N/Y98MAD0TgeZx6EkSZLLbWUOeSQQ6L0g7Rz7H78X3fccYc599xzc730DK9IaZh//vmtitgSR77ba0NCREZY+gJZcd8sLE4//XRD3csI5T3rrLMSVfDM8BPaHJ7Ek4bvxAIB16Tnaa9ppf6E04sKZXbbD5YLz70VefXVV2OXZbkS/ERWLp5kkkliOtq5MeGEE0YdGu4Q5M033zTkJnXSD9u/nRUMqfvJJ5+MERL+Jdd5XeZe5DjtvPPOTckI/bz8W265ZdTLN7sfpjpOwmOOOSYXGaGLxkuOSxLBJN2LpMe0c8ksJsu9m4IvYquttsokI8rIs8VH8+CDD+YucrvqTxlcCwWyJP+tqNAGsG6s8LK7/iO7313ignBzx7CE8TF1Unxr0O24O1GOPkFINO4LLrgghgdZ26F6jxNOOCHWELhR2gv9+eefGyyLNCFcSna4dQ7a8yBQHPAMPRmmjDXWWPZQY4kFiCWQJ9xLVCZNyJfJk2SX55y0e9j9OGZ9eeGFF8z222/fi+C539RTTx0N1fxsZ0jg4IMPjhJgfX1J2yHqn6TXdSpz3H9Bk65J2vfyyy/HdjMszxK/TksuuWQUqcu6LuTxpZdeOqYOCylPe4xdVGKja0M2Xj6cdr5Q+b/++sv89ttvhuzRIUOGRFNB3J4DUzxvToivv9k2YVb0YqIzlscXxQOBgNz5cc8++2w0/2f66afvpe6mm24y7777bmw/BIHF5EcEafwMdzCNreBneuyxx6JpMnZf0tLiQX6M7cWxNPAbEe7PIwcddFBm5jGha3pqenzmcOEPskKPv++++9rNaEm5Tj311Jg1iw6CEoSwLdHjo+HZknjotgOGeOCfNdwKUf9Ywf/beOaZZ2K7F1988dh23o2ihHTvvffGyJjnitXeaWHYjF+TnCiEJGT8f51K1OwaIdEgV1555cJ401BpxNMNT5wMKfTc5Iy4lgtO7NVXXz1yZu+1116xl+zuu+82O+64Y68i3HbbbbF99DhET5KsEfKoIKSNN9644bDmYggPCzBLcAZfdtllDacwZA5x4NzOI2CZ9eKjB5LDx+OSEcRy0kknNe5t73fLLbfECJZ6Q1B+zhgkhxMVx/Y+++zTsKYY5uD72nXXXa3K1GXZ+vuKSYK0wQ6OMczCad+K5CUk/EaE2JlD5gqYdHq4Zu/PM7GExD465U4RUp8YslmgWJKP1A4nG4TjkpF7T+63xhpruLsi6y22Y/gGkSDX2uH4DjvskEhG9loIwbdo6JXyyIEHHhgjBF7+vGSURz/n4OTFCmKoagVHL/4x34eHVXv++efb06IlZOuTkXvClFNO2cvKYugCllkSuv7PPfdc7JZ+/WIHm2xAMm+//XbsDFJXsJxpH0RyH3rooWjeGFNM+JIAOCNY0QRXms3XjCluw4aN4FrVPi52fzuWXbOQWq0M/hka+JFHHtly7+Xfm6kqJIY1E3wAroOPl88XhnkM77BSCMMjeSw5XkpX8qTt03DzWFGu3qLrDKux7kgtcIXe26YWuPv5jIX7iRn8RGQsZwmE7w4TqD8vbrOoWzvq76aLUOZWCQn/oR8RzsKBum6zzTaGXCDfv5aFX+jjfr19XELfz9XXVUJKy8uwPiR8C26kwhYc3wu+Hl7+EI5thmtZ4pvulNEXekHIsplF4F7DUIjex4+W+Y3Zvcau5ymzPbfV5WmnnRb5s9zr8QX5aRT2uJ33ZbchmbyfsqAtuMMES+hWl79sR/39ttZq23rllVf84mZuM4TlfkXICKsKFwFBBCxY2g25TPPMM49ZYYUVMqN6aYXy8+18XNKuC7G/a4TEXDbfvE+qEIl7ZIzia3GT1XD+nnjiidFf0nVF9mWFY9HlT/QtEnnAOY9jEMuJPCdeXMqfZ1iSVo/QQzP/PiTFufk4HCfq08y34xMSLyZTH/IIeLji63KPsd6O+rvWHfdIG8JzrJm89NJLscNHHHGEWX755aN9kAYJrmRg33777ea+++6LiIS2geVJbpk/hI8p+28DHVhdSdbLo48+GuWhrbjiipFjvJmlmaTb9yvmdSEk6Sq6r2uElLegOBb5ZsuCCy4YDR/s1+24nmgUD59Qehnxe4QkXUlO6aTz7D6co8xFotG5eS32eNllO15IWyY6AH/iM6kKvFhEzNIkiUT8iGPatf7+JF3uOe2ov09I/ovp3r/Zum8h0T7xuyEsGW7yx1AVxz7RToROjs/r0NazrLMzzjijQUabbLKJWW+99aJ2RqIriaiMLgi8YH1fccUVhRzkPhFjCJDb1ioeUeVy/ktvXTkVdOo0xrU4Un1igJTKCiHWkHL55ZdHExOZoJlFRtSnlfvnmW7RSp1wuB511FGxS+lhsUaxaptJGYvP15s1TGhH/d0oIuVp5blgDbvTcUglaRYtIwrrphbgCvAtUx8bthmmIeSBEe3FyqfTIIhC9NMSIGRSFKukeif5TKMCBP5XeQvJrS8OYtLv3R6o2VQP99pOrRP2JrkxTRjjE0Llj/AqvSSf9+UTK90W/DYEDdyhMSQEGeUx+/2GTyfivmxF6pfnfkX05TnX9xO6uWd5rucct22ynTVdhHPwtbkdax6rEqzpACgjwzY3MIJFxrAP/xLtLK8fj7IgSfVOSoD9/9lh//cpQqLqRLJcsRNO3X3dWscPQNa3K1hA66yzTpTsR8NLerB+Ayjin3LvVWad4QqpD66/gLITzaTnzSO+o5nIZDsSWPOUpZVzcA+44g/h3GNp637+UVrgxr3eJnnafQyPsoQoJ0EAfFLkiDGVxiadci2+PlJVfJLN0stxv968c0lWUx5dRc/pM0M2WzE3EsO+VgC3ukIvSSBzGxcPEeuCPB6yqZPIiDL4pOrqCF3GJH3kzWAZQaiuMLeuSGqB/8UCPyfL1e2vE+on6thNaQch5bGQ3Bwv6p/HOsSvai1ScIaU3HQRSIRom/9M8uDrExJWfaekTxESyWZ+o202Pu8UiPY+ZFi7Agn19PS4uxLX/flTnSQkrDF8Rn5kiI9zFf1ioG8h8fkNP0EwEYDhO0lypEfHyUsypT93Me26kPt9QnKtxTz3YajrkjAWZhYhcc3QoUNj6nF4ZwlldX19TzzxRDTsD2Fd+/X2cckqW5njfYaQICIbjXArXKQHd69rx7ofgnXH9Wn3I2PXTzxMynFKu77sfqJp/idISBLdc889C6smw9e1WCFWLMSsl4QvHTCvDeEFJQUgTypG4QJmXOBbJnl8Oa5KEiJdKwWfZ1Zk6p577okNk9EHKWcJ/j7f+c18OD47U1b8eouQHEQZzhCtInrgDyl44IRIqyL+ZFteMjslIKmMRLQI8/rS7Br/3DLb119/fey70ejiM6ZEM22Upoh+HOC+zwjLiwTWNJJluOJ3NAxtO/1hMOrpp4/QUTCczSs28mXPz5rhT2oD4XtX+N03fI1pAo4krGJF0pGQH+daYUR4y37p0a8HZeqUdM2pTRgRUJOEHhVnHWHYtPAvDjwm2TbLi0nS3c59fkOiF+MDcXwrGfK0QkPkqwDM2aKevvgms388xDb+Lhq2L8suu2yUO8WLmPdl5BMdtn4Mu6ib+/kV6slwlk+SQHj0uPgp6NGZVOoPw8kGLxoZ8uvRyjYWEs/Q+imxdrDe0j6a59+DhERXmhESnREBAzegQYqAT86uPpzdHOfZITi2Geri49ljjz0ijNnPL5YwW6CV7zhh1frD91YjpZSlqHSNkCion51bpPDMseLzslUSvl7AzG03FYHGQ+IajYbhDDkqPskybcANtXM9pJTmBA9RZ3wdSb4qojVFheGVJST8JvxCMVEeN68HXxLkjDA9wh3auPfjUy38DFC3BBeAJSTKwMuZh5CYAuRH2LBm2Ie1idVLThqdEZ+J4TMn7lCW9kH+kO+HszjQgfNFUeuj4ufDiOja6BedHh+5Qyfti4TcpO/QW31pS4ZrbpTPdiBp54fe32d8SLbihKCxjPwPSdnj3VwyZKHXS0ogZOjJS+mTEblIWAnucAGrqazZ3U0cmKzM0IEcqyRJIyOmOvCRNkitW+L7JP1ARVK58MMRpfSF71NjFTJpFjLBuoHw6aQsGUEozPjHLdEsveLKK69skBFOb4b6loy4LzlfrvvC9wv6ZUvb9mf2+3ikXRdqf8csJBe8PIWnV2FYhlOQXoMXl/lAMHYzwdpwJem+/jn+tnu9Xff1+Nv2PEx+powwT49eyjY8e5wl15KwRhSLSZAMOzG/XVOZyBv5S1b8++Ups3+Oq8M/Zu/TytLVa68n+onviOEbeDB8TbLIOJ+68wG7ZkMc/x4hy2/LzBJSYOhms84hD9Z9h7e9BssFqzitbvY8ykso3v5hUQ4cODAi7aQOzF7Hkvszt9DKpptumjjPjg7ADueypt5YXf7S/W47x5i/2Ekp1RUNB3QYhbURkk4WvC/ci2EXDQNnPBYSc+YgIuZhFZnV3RfqmlVG/FEM0RkSMGxlrhZRSP7aOTTNKlfScT5650armJrRzWEkhA65I/iFmA2Q5GPj2/Buxj+/Y1gkOIEF79YTZ3aRIbxNcRmextAyr3TMQkp68CP6Pl40/vJk647oWPACYX00G5ZUBQNysBgi2U/r3nrrrZF/pltDSdfXSkQtiYzAznWQQ1xFyIjrqacrWw3/kYZOS5/zIXUaIN2vfgjgJiAT2goWbh5fkj0/9JJfI7HSLLfNTYspSvwEVdzhGsRHYm+nRYTUacR1vz6BAI5md27Y4MGDu1ZuN/0izd9EoMD9qfksX6tfGT5VYi1CjnXDOuK+IiRQkAgBDwGcz26eHN8VIneoG+J+49rPorblwX/Ep08Q8plINckrEJ47VQfrqNPRNVtWEZJFQksh4CGAg9clg7Rf6PUuC75pncUoZt6b+6kS9hHiJxnSCpO53Sk8dn/aEqe5neBNNJOvVnZL5NTuFvK6b+UR4OUkAZc8InLDSMtg7mGnc+CY20bCqPXxkHhKiJ/UChIlbSInjmw+IUO2fV4hEkzOmBXypkhJ6JbIQuoW8rpvn0AA5/CgQYMaZSUdIGm6T+OENq1gtfATYDaTm3wjomKQEZnyEBafqmVZRPgNPJuZTR6YO0wtoifUubKQQiEpPSMsAgzd8MuQ/EgovRvzJ7knZMMfBML0IqajkKFdJo+LpFRIDv0MDbtRN7fhiJBcNLQuBBIQIInVzZpPOKWju0hLKBpFSysg2eJVEg3ZqvQ0VBYhUHMEREg1bwCqvhCoEgIipCo9DZVFCNQcARFSzRuAqi8EqoSACKlKT0NlEQI1R0CEVPMGoOoLgSohIEKq0tNQWYRAzREQIdW8Aaj6QqBKCIiQqvQ0VBYhUHMEREg1bwCqvhCoEgIipCo9DZVFCNQcARFSzRuAqi8EqoSACKlKT0NlEQI1R0CEVPMGoOoLgSohIEKq0tNQWYRAzREQIdW8Aaj6QqBKCIiQqvQ0VBYhUHMEREg1bwCqvhCoEgIipCo9DZVFCNQcARFSzRuAqi8EqoSACKlKT0NlEQI1R0CEVPMGoOoLgSohIEKq0tNQWYRAzREQIdW8Aaj6QqBKCIiQqvQ0VBYhUHMEREg1bwCqvhCoEgIipCo9DZVFCNQcARFSzRuAqi8EqoSACKlKT0NlEQI1R0CEVPMGoOoLgSohIEKq0tNQWYRAzREQIdW8Aaj6QqBKCIiQqvQ0VBYhUHMEREg1bwCqvhCoEgIipCo9DZVFCNQcARFSzRuAqi8EqoSACKlKT0NlEQI1R0CEVPMGoOoLgSohIEKq0tNQWYRAzREQIdW8Aaj6QqBKCIiQqvQ0VBYhUHMEBoSof09PTwg10iEEhEDNEZCFVPMGoOoLASEgBISAEBACCQj8D1y7BnW+8L9AAAAAAElFTkSuQmCC;" vertex="1" parent="1">
          <mxGeometry x="660" y="1610" width="292" height="136" as="geometry" />
        </mxCell>
        <mxCell id="mgeIUsZjKfc3Y_ak5dJY-109" value="" style="rounded=0;whiteSpace=wrap;html=1;fillColor=#eeeeee;strokeColor=#36393d;" vertex="1" parent="1">
          <mxGeometry x="980" y="1600" width="230" height="110" as="geometry" />
        </mxCell>
        <mxCell id="mgeIUsZjKfc3Y_ak5dJY-113" value="" style="edgeStyle=orthogonalEdgeStyle;rounded=0;orthogonalLoop=1;jettySize=auto;html=1;" edge="1" parent="1" source="mgeIUsZjKfc3Y_ak5dJY-110" target="mgeIUsZjKfc3Y_ak5dJY-112">
          <mxGeometry relative="1" as="geometry" />
        </mxCell>
        <mxCell id="mgeIUsZjKfc3Y_ak5dJY-110" value="&lt;font style=&quot;font-size: 18px;&quot;&gt;The encoder utilizes the conversion of sentences into corresponding vectors.&lt;/font&gt;" style="rounded=1;whiteSpace=wrap;html=1;fillColor=#f9f7ed;strokeColor=#36393d;" vertex="1" parent="1">
          <mxGeometry x="897" y="1830" width="323" height="100" as="geometry" />
        </mxCell>
        <mxCell id="mgeIUsZjKfc3Y_ak5dJY-115" value="" style="edgeStyle=orthogonalEdgeStyle;rounded=0;orthogonalLoop=1;jettySize=auto;html=1;" edge="1" parent="1" source="mgeIUsZjKfc3Y_ak5dJY-112" target="mgeIUsZjKfc3Y_ak5dJY-114">
          <mxGeometry relative="1" as="geometry" />
        </mxCell>
        <mxCell id="mgeIUsZjKfc3Y_ak5dJY-112" value="&lt;font style=&quot;font-size: 18px;&quot;&gt;The normalization layer is used to constrain floating point numbers within a fixed range.&lt;/font&gt;" style="rounded=1;whiteSpace=wrap;html=1;fillColor=#f9f7ed;strokeColor=#36393d;" vertex="1" parent="1">
          <mxGeometry x="896.5" y="1990" width="323" height="100" as="geometry" />
        </mxCell>
        <mxCell id="mgeIUsZjKfc3Y_ak5dJY-114" value="&lt;font style=&quot;font-size: 18px;&quot;&gt;The binarizer converts floating point numbers into binary.&lt;/font&gt;" style="rounded=1;whiteSpace=wrap;html=1;fillColor=#f9f7ed;strokeColor=#36393d;" vertex="1" parent="1">
          <mxGeometry x="896.5" y="2150" width="323" height="100" as="geometry" />
        </mxCell>
        <mxCell id="mgeIUsZjKfc3Y_ak5dJY-116" value="&lt;font style=&quot;font-size: 16px;&quot;&gt;Physical &lt;br&gt;Channel&lt;/font&gt;" style="rounded=1;whiteSpace=wrap;html=1;" vertex="1" parent="1">
          <mxGeometry x="530" y="1990" width="120" height="50" as="geometry" />
        </mxCell>
        <mxCell id="mgeIUsZjKfc3Y_ak5dJY-118" value="&lt;font style=&quot;font-size: 18px;&quot;&gt;The decoder converts vectors to corresponding sentences and restores the messages from the transmitter.&lt;/font&gt;" style="rounded=1;whiteSpace=wrap;html=1;fillColor=#eeeeee;strokeColor=#36393d;" vertex="1" parent="1">
          <mxGeometry x="1341" y="1910" width="323" height="100" as="geometry" />
        </mxCell>
        <mxCell id="mgeIUsZjKfc3Y_ak5dJY-120" value="" style="edgeStyle=orthogonalEdgeStyle;rounded=0;orthogonalLoop=1;jettySize=auto;html=1;" edge="1" parent="1" source="mgeIUsZjKfc3Y_ak5dJY-119" target="mgeIUsZjKfc3Y_ak5dJY-118">
          <mxGeometry relative="1" as="geometry" />
        </mxCell>
        <mxCell id="mgeIUsZjKfc3Y_ak5dJY-119" value="&lt;font style=&quot;font-size: 18px;&quot;&gt;The binary converts to floating point numbers through the binarizer.&amp;nbsp;&lt;/font&gt;" style="rounded=1;whiteSpace=wrap;html=1;fillColor=#eeeeee;strokeColor=#36393d;" vertex="1" parent="1">
          <mxGeometry x="1341" y="2070" width="323" height="100" as="geometry" />
        </mxCell>
      </root>
    </mxGraphModel>
  </diagram>
</mxfile>
